<svg width="18" height="17" viewBox="0 0 18 17" fill="none" xmlns="http://www.w3.org/2000/svg">
<path d="M16.5 8.5C16.5 8.00272 16.3025 7.52581 15.9508 7.17417C15.5992 6.82254 15.1223 6.625 14.625 6.625H11.5C11.5 7.28804 11.2366 7.92393 10.7678 8.39277C10.2989 8.86161 9.66304 9.125 9 9.125C8.33696 9.125 7.70107 8.86161 7.23223 8.39277C6.76339 7.92393 6.5 7.28804 6.5 6.625H3.375C2.87772 6.625 2.40081 6.82254 2.04917 7.17417C1.69754 7.52581 1.5 8.00272 1.5 8.5M16.5 8.5V13.5C16.5 13.9973 16.3025 14.4742 15.9508 14.8258C15.5992 15.1775 15.1223 15.375 14.625 15.375H3.375C2.87772 15.375 2.40081 15.1775 2.04917 14.8258C1.69754 14.4742 1.5 13.9973 1.5 13.5V8.5M16.5 8.5V6M1.5 8.5V6M16.5 6C16.5 5.50272 16.3025 5.02581 15.9508 4.67417C15.5992 4.32254 15.1223 4.125 14.625 4.125H3.375C2.87772 4.125 2.40081 4.32254 2.04917 4.67417C1.69754 5.02581 1.5 5.50272 1.5 6M16.5 6V3.5C16.5 3.00272 16.3025 2.52581 15.9508 2.17417C15.5992 1.82254 15.1223 1.625 14.625 1.625H3.375C2.87772 1.625 2.40081 1.82254 2.04917 2.17417C1.69754 2.52581 1.5 3.00272 1.5 3.5V6" stroke="black" stroke-width="1.5" stroke-linecap="round" stroke-linejoin="round"/>
</svg>
