<svg width="11" height="14" viewBox="0 0 11 14" fill="none" xmlns="http://www.w3.org/2000/svg">
<path d="M10.41 5.57486C10.61 4.24486 9.59503 3.52986 8.21003 3.05153L8.66003 1.24986L7.5617 0.97653L7.12336 2.73153C6.83503 2.65986 6.54003 2.59153 6.24503 2.52486L6.68503 0.758197L5.58837 0.484863L5.14003 2.28486L2.9267 1.7382L2.63503 2.90986C2.63503 2.90986 3.44837 3.09653 3.4317 3.1082C3.8767 3.21986 3.9567 3.5132 3.94337 3.74653L2.7117 8.6832C2.6567 8.81653 2.52003 9.01986 2.20837 8.9432C2.22003 8.95986 1.4117 8.7432 1.4117 8.7432L0.866699 9.99986L3.0767 10.5582L2.6217 12.3815L3.71837 12.6549L4.16837 10.8515C4.46837 10.9332 4.75837 11.0082 5.04337 11.0782L4.59337 12.8732L5.6917 13.1465L6.1467 11.3265C8.0167 11.6832 9.42503 11.5399 10.0167 9.84986C10.4934 8.4882 9.99337 7.70153 9.00837 7.18986C9.72503 7.0232 10.265 6.55153 10.4084 5.5782H10.41V5.57486ZM7.9017 9.09153C7.5617 10.4532 5.26837 9.71653 4.52503 9.53153L5.1267 7.11653C5.87003 7.30153 8.25503 7.66986 7.9017 9.09153ZM8.2417 5.55653C7.93336 6.79653 6.02337 6.16653 5.40337 6.01153L5.94837 3.81986C6.56837 3.97486 8.56503 4.2632 8.2417 5.55653Z" fill="white"/>
</svg>
