<svg width="20" height="20" viewBox="0 0 20 20" fill="none" xmlns="http://www.w3.org/2000/svg">
<g clip-path="url(#clip0_3395_8569)">
<path d="M17.522 19.8626H2.48867C1.23429 19.8626 0.199707 18.8372 0.199707 17.5736V2.53115C0.199707 1.27677 1.22512 0.242188 2.48867 0.242188H17.5312C18.7855 0.242188 19.8201 1.2676 19.8201 2.53115V17.5736C19.811 18.828 18.7855 19.8626 17.522 19.8626Z" fill="black"/>
<mask id="mask0_3395_8569" style="mask-type:luminance" maskUnits="userSpaceOnUse" x="0" y="0" width="18" height="18">
<path d="M0.160156 0.213379H17.5468V17.6H0.160156V0.213379Z" fill="white"/>
</mask>
<g mask="url(#mask0_3395_8569)">
<mask id="mask1_3395_8569" style="mask-type:luminance" maskUnits="userSpaceOnUse" x="0" y="0" width="18" height="18">
<path d="M8.42186 6.30323H11.4617L17.5225 0.242188H2.48915C1.23478 0.242188 0.200195 1.2676 0.200195 2.53115V17.5736L8.42186 9.34281V6.30323Z" fill="white"/>
</mask>
<g mask="url(#mask1_3395_8569)">
<path d="M0.200195 0.242188V17.5736H17.5225V0.242188H0.200195Z" fill="url(#paint0_linear_3395_8569)"/>
</g>
</g>
<path d="M3.16644 6.34915L3.43186 5.81811C3.46852 5.71728 3.56936 5.69895 3.66081 5.74478C3.66081 5.74478 4.10936 5.9829 4.55811 5.9829C4.75956 5.9829 4.89686 5.9004 4.89686 5.73561C4.89686 5.56165 4.75956 5.45186 4.23769 5.24124C3.47769 4.94832 3.12061 4.53624 3.12061 3.94124C3.12061 3.33686 3.56936 2.77832 4.57644 2.77832C5.16227 2.77832 5.58352 2.94311 5.79415 3.08061C5.88561 3.1354 5.93144 3.2454 5.88561 3.34603L5.63831 3.84957C5.59269 3.94124 5.48269 3.9504 5.4004 3.9229C5.4004 3.9229 4.95165 3.71228 4.58561 3.71228C4.34748 3.71228 4.24686 3.8129 4.24686 3.94124C4.24686 4.1152 4.42081 4.17915 4.78686 4.32561C5.54686 4.61874 6.12373 4.94832 6.12373 5.71728C6.12373 6.36749 5.54686 6.92582 4.55811 6.92582C3.90811 6.92582 3.45019 6.7152 3.24873 6.55957C3.16644 6.50478 3.12061 6.42228 3.16644 6.34915Z" fill="white"/>
<path d="M6.91064 5.12185C6.91064 4.97539 7.0296 4.83789 7.19439 4.83789H10.6096C12.3856 4.83789 13.7498 6.02831 13.7498 7.59372C13.7498 8.73831 12.8069 9.63539 12.1111 9.96518C12.8984 10.2214 14.0519 11.0271 14.0519 12.3912C14.0519 14.0577 12.6238 15.2662 10.8017 15.2662H7.19439C7.0296 15.2662 6.91064 15.1287 6.91064 14.9823V5.12185ZM10.4265 9.21435C11.1863 9.21435 11.7081 8.61914 11.7081 7.87768C11.7081 7.13602 11.1863 6.61414 10.4265 6.61414H8.83335V9.22352H10.4265V9.21435ZM10.6369 13.5083C11.3786 13.5083 11.9738 12.9314 11.9738 12.1533C11.9738 11.4116 11.2321 10.8531 10.4538 10.8531H8.83335V13.5083H10.6369Z" fill="white"/>
</g>
<defs>
<linearGradient id="paint0_linear_3395_8569" x1="0.200229" y1="8.9055" x2="17.5225" y2="8.9055" gradientUnits="userSpaceOnUse">
<stop stop-color="#ED693C"/>
<stop offset="0.0078125" stop-color="#ED693C"/>
<stop offset="0.015625" stop-color="#ED6A3B"/>
<stop offset="0.0234375" stop-color="#ED6B3B"/>
<stop offset="0.03125" stop-color="#ED6C3A"/>
<stop offset="0.0390625" stop-color="#EE6D3A"/>
<stop offset="0.046875" stop-color="#EE6D3A"/>
<stop offset="0.0546875" stop-color="#EE6E39"/>
<stop offset="0.0625" stop-color="#EE6F39"/>
<stop offset="0.0703125" stop-color="#EE7038"/>
<stop offset="0.078125" stop-color="#EE7138"/>
<stop offset="0.0859375" stop-color="#EE7237"/>
<stop offset="0.09375" stop-color="#EE7237"/>
<stop offset="0.101563" stop-color="#EF7337"/>
<stop offset="0.109375" stop-color="#EF7436"/>
<stop offset="0.117188" stop-color="#EF7536"/>
<stop offset="0.125" stop-color="#EF7635"/>
<stop offset="0.132812" stop-color="#EF7635"/>
<stop offset="0.140625" stop-color="#EF7735"/>
<stop offset="0.148438" stop-color="#EF7834"/>
<stop offset="0.15625" stop-color="#F07934"/>
<stop offset="0.164063" stop-color="#F07A33"/>
<stop offset="0.171875" stop-color="#F07A33"/>
<stop offset="0.179688" stop-color="#F07B32"/>
<stop offset="0.1875" stop-color="#F07C32"/>
<stop offset="0.195313" stop-color="#F07D32"/>
<stop offset="0.203125" stop-color="#F07E31"/>
<stop offset="0.210938" stop-color="#F17E31"/>
<stop offset="0.21875" stop-color="#F17F30"/>
<stop offset="0.226563" stop-color="#F18030"/>
<stop offset="0.234375" stop-color="#F1812F"/>
<stop offset="0.242188" stop-color="#F1822F"/>
<stop offset="0.25" stop-color="#F1822F"/>
<stop offset="0.257813" stop-color="#F1832E"/>
<stop offset="0.265625" stop-color="#F2842E"/>
<stop offset="0.273438" stop-color="#F2852D"/>
<stop offset="0.28125" stop-color="#F2862D"/>
<stop offset="0.289063" stop-color="#F2862C"/>
<stop offset="0.296875" stop-color="#F2872C"/>
<stop offset="0.304688" stop-color="#F2882C"/>
<stop offset="0.3125" stop-color="#F2892B"/>
<stop offset="0.320312" stop-color="#F38A2B"/>
<stop offset="0.328125" stop-color="#F38A2A"/>
<stop offset="0.335938" stop-color="#F38B2A"/>
<stop offset="0.34375" stop-color="#F38C2A"/>
<stop offset="0.351563" stop-color="#F38D29"/>
<stop offset="0.359375" stop-color="#F38E29"/>
<stop offset="0.367188" stop-color="#F38E28"/>
<stop offset="0.375" stop-color="#F38F28"/>
<stop offset="0.382813" stop-color="#F49027"/>
<stop offset="0.390625" stop-color="#F49127"/>
<stop offset="0.398438" stop-color="#F49227"/>
<stop offset="0.40625" stop-color="#F49226"/>
<stop offset="0.414063" stop-color="#F49326"/>
<stop offset="0.421875" stop-color="#F49425"/>
<stop offset="0.429688" stop-color="#F49525"/>
<stop offset="0.4375" stop-color="#F59624"/>
<stop offset="0.445312" stop-color="#F59624"/>
<stop offset="0.453125" stop-color="#F59724"/>
<stop offset="0.460938" stop-color="#F59823"/>
<stop offset="0.46875" stop-color="#F59923"/>
<stop offset="0.476563" stop-color="#F59A22"/>
<stop offset="0.484375" stop-color="#F59A22"/>
<stop offset="0.492188" stop-color="#F69B21"/>
<stop offset="0.5" stop-color="#F69C21"/>
<stop offset="0.507812" stop-color="#F69D21"/>
<stop offset="0.515625" stop-color="#F69E20"/>
<stop offset="0.523438" stop-color="#F69E20"/>
<stop offset="0.53125" stop-color="#F69F1F"/>
<stop offset="0.539062" stop-color="#F6A01F"/>
<stop offset="0.546875" stop-color="#F7A11F"/>
<stop offset="0.554688" stop-color="#F7A21E"/>
<stop offset="0.5625" stop-color="#F7A21E"/>
<stop offset="0.570313" stop-color="#F7A31D"/>
<stop offset="0.578125" stop-color="#F7A41D"/>
<stop offset="0.585938" stop-color="#F7A51C"/>
<stop offset="0.59375" stop-color="#F7A61C"/>
<stop offset="0.601563" stop-color="#F8A61C"/>
<stop offset="0.609375" stop-color="#F8A71B"/>
<stop offset="0.617188" stop-color="#F8A81B"/>
<stop offset="0.625" stop-color="#F8A91A"/>
<stop offset="0.632812" stop-color="#F8AA1A"/>
<stop offset="0.640625" stop-color="#F8AA19"/>
<stop offset="0.648437" stop-color="#F8AB19"/>
<stop offset="0.65625" stop-color="#F8AC19"/>
<stop offset="0.664062" stop-color="#F9AD18"/>
<stop offset="0.671875" stop-color="#F9AE18"/>
<stop offset="0.679687" stop-color="#F9AE17"/>
<stop offset="0.6875" stop-color="#F9AF17"/>
<stop offset="0.695312" stop-color="#F9B016"/>
<stop offset="0.703125" stop-color="#F9B116"/>
<stop offset="0.710938" stop-color="#F9B216"/>
<stop offset="0.71875" stop-color="#FAB215"/>
<stop offset="0.726562" stop-color="#FAB315"/>
<stop offset="0.734375" stop-color="#FAB414"/>
<stop offset="0.742188" stop-color="#FAB514"/>
<stop offset="0.75" stop-color="#FAB614"/>
<stop offset="0.757812" stop-color="#FAB613"/>
<stop offset="0.765625" stop-color="#FAB713"/>
<stop offset="0.773438" stop-color="#FBB812"/>
<stop offset="0.78125" stop-color="#FBB912"/>
<stop offset="0.789062" stop-color="#FBBA11"/>
<stop offset="0.796875" stop-color="#FBBA11"/>
<stop offset="0.804688" stop-color="#FBBB11"/>
<stop offset="0.8125" stop-color="#FBBC10"/>
<stop offset="0.820313" stop-color="#FBBD10"/>
<stop offset="0.828125" stop-color="#FCBE0F"/>
<stop offset="0.835938" stop-color="#FCBE0F"/>
<stop offset="0.84375" stop-color="#FCBF0E"/>
<stop offset="0.851563" stop-color="#FCC00E"/>
<stop offset="0.859375" stop-color="#FCC10E"/>
<stop offset="0.867188" stop-color="#FCC20D"/>
<stop offset="0.875" stop-color="#FCC20D"/>
<stop offset="0.882812" stop-color="#FDC30C"/>
<stop offset="0.890625" stop-color="#FDC40C"/>
<stop offset="0.898437" stop-color="#FDC50B"/>
<stop offset="0.90625" stop-color="#FDC60B"/>
<stop offset="0.9375" stop-color="#FDC60B"/>
<stop offset="1" stop-color="#FDC60B"/>
</linearGradient>
<clipPath id="clip0_3395_8569">
<rect width="20" height="20" fill="white"/>
</clipPath>
</defs>
</svg>
