<svg width="12" height="11" viewBox="0 0 12 11" fill="none" xmlns="http://www.w3.org/2000/svg">
<path fill-rule="evenodd" clip-rule="evenodd" d="M0.193919 10.753C0.260005 10.8261 0.339861 10.8855 0.428917 10.9278C0.517974 10.97 0.614485 10.9943 0.712933 10.9992C0.81138 11.0041 0.909833 10.9896 1.00266 10.9565C1.09549 10.9233 1.18087 10.8722 1.25392 10.806L10.4999 2.44V5.25C10.4999 5.44891 10.5789 5.63968 10.7196 5.78033C10.8602 5.92098 11.051 6 11.2499 6C11.4488 6 11.6396 5.92098 11.7802 5.78033C11.9209 5.63968 11.9999 5.44891 11.9999 5.25V0.75C11.9999 0.551088 11.9209 0.360322 11.7802 0.21967C11.6396 0.0790175 11.4488 0 11.2499 0H6.74992C6.55101 4.19176e-09 6.36024 0.0790175 6.21959 0.21967C6.07894 0.360322 5.99992 0.551088 5.99992 0.75C5.99992 0.948912 6.07894 1.13968 6.21959 1.28033C6.36024 1.42098 6.55101 1.5 6.74992 1.5H9.30292L0.246919 9.694C0.173784 9.76009 0.114394 9.83994 0.0721438 9.929C0.029894 10.0181 0.00561402 10.1146 0.000691651 10.213C-0.00423072 10.3115 0.0103012 10.4099 0.0434568 10.5027C0.0766124 10.5956 0.127741 10.6799 0.193919 10.753Z" fill="white"/>
</svg>
