<svg width="20" height="20" viewBox="0 0 20 20" fill="none" xmlns="http://www.w3.org/2000/svg">
<path d="M19.7001 12.4198C19.3824 13.6937 18.8168 14.8925 18.0358 15.9477C17.2547 17.003 16.2734 17.8941 15.148 18.5702C14.0225 19.2462 12.7749 19.6939 11.4764 19.8877C10.1779 20.0815 8.85393 20.0177 7.5801 19.6998C5.66184 19.2211 3.92859 18.1843 2.59955 16.7206C1.2705 15.2568 0.405334 13.4318 0.113452 11.4764C-0.178429 9.52096 0.116081 7.52289 0.959742 5.73483C1.8034 3.94677 3.15832 2.44903 4.85318 1.431C6.54803 0.412971 8.5067 -0.0796316 10.4815 0.0154847C12.4563 0.110601 14.3586 0.789164 15.9477 1.96537C17.5369 3.14157 18.7416 4.7626 19.4095 6.62346C20.0774 8.48432 20.1786 10.5015 19.7001 12.4198Z" fill="#F7931A"/>
</svg>
