<svg width="11" height="7" viewBox="0 0 11 7" fill="none" xmlns="http://www.w3.org/2000/svg">
<path d="M9.42602 1.4428L5.17822 5.94046C5.15517 5.96403 5.12767 5.9828 5.09732 5.99571C5.06639 6.00885 5.03313 6.01563 4.99953 6.01563C4.96593 6.01563 4.93266 6.00885 4.90174 5.99571C4.87138 5.9828 4.84389 5.96403 4.82084 5.94046L0.573036 1.4428L0.573051 1.44278L0.569843 1.43945C0.5239 1.39169 0.498795 1.32765 0.500045 1.2614C0.501295 1.19515 0.528798 1.1321 0.57651 1.08611L0.229535 0.726113L0.57619 1.08642C0.623943 1.04048 0.687983 1.01537 0.754236 1.01662C0.819795 1.01786 0.882215 1.0448 0.928072 1.09159L4.6356 5.02697L4.99953 5.41327L5.36346 5.02697L9.07346 1.08897L9.07353 1.08903L9.07987 1.08203C9.10235 1.05725 9.12957 1.03724 9.15993 1.02317C9.19029 1.0091 9.22316 1.00127 9.2566 1.00014C9.29004 0.999013 9.32336 1.00461 9.3546 1.01659C9.38584 1.02858 9.41435 1.04671 9.43845 1.06992C9.46255 1.09313 9.48175 1.12094 9.4949 1.1517C9.50806 1.18246 9.5149 1.21555 9.51504 1.24901C9.51517 1.28247 9.50858 1.31561 9.49567 1.34648C9.48276 1.37734 9.46378 1.40531 9.43987 1.4287L9.43281 1.43561L9.42602 1.4428Z" fill="white" stroke="url(#paint0_linear_3556_1643)"/>
<defs>
<linearGradient id="paint0_linear_3556_1643" x1="-1.61111" y1="3.50781" x2="3.08358" y2="9.21229" gradientUnits="userSpaceOnUse">
<stop stop-color="#ED693C"/>
<stop offset="0.9036" stop-color="#FEDB63"/>
</linearGradient>
</defs>
</svg>
