<svg width="25" height="16" viewBox="0 0 25 16" fill="none" xmlns="http://www.w3.org/2000/svg">
<path d="M3.01617 13.9446L3.5207 15.0334L3.01617 13.9446C2.94332 13.9783 2.86443 13.9971 2.78417 13.9999C2.70391 14.0026 2.62393 13.9891 2.54896 13.9604C2.474 13.9316 2.40557 13.8881 2.34772 13.8324C2.28988 13.7767 2.24381 13.7099 2.21223 13.6361C2.18066 13.5623 2.16423 13.4829 2.16391 13.4026C2.16359 13.3223 2.1794 13.2427 2.21038 13.1687L1.10334 12.7056L2.21039 13.1686C2.24137 13.0946 2.28692 13.0275 2.34431 12.9713L2.36126 12.9547L2.37755 12.9375L12.5722 2.14312C12.6276 2.08655 12.6936 2.04148 12.7664 2.0105C12.8407 1.97896 12.9205 1.9627 13.0011 1.9627C13.0818 1.9627 13.1616 1.97896 13.2358 2.0105C13.3087 2.04147 13.3747 2.08655 13.43 2.14312L23.6247 12.9375L23.6247 12.9375L23.6324 12.9455C23.7426 13.0601 23.8029 13.2138 23.7999 13.3728C23.7969 13.5317 23.731 13.6828 23.6168 13.7931C23.5022 13.9032 23.3487 13.9633 23.1898 13.9603C23.0325 13.9573 22.8827 13.8927 22.7726 13.7804L13.8746 4.33547L13.0011 3.40836L12.1277 4.33547L3.2237 13.7867L3.21593 13.7949L3.20831 13.8033C3.15437 13.8628 3.08903 13.9108 3.01617 13.9446Z" fill="white" stroke="url(#paint0_linear_3649_1037)" stroke-width="2.4"/>
<defs>
<linearGradient id="paint0_linear_3649_1037" x1="28.8667" y1="7.98144" x2="17.5994" y2="-5.7093" gradientUnits="userSpaceOnUse">
<stop stop-color="#ED693C"/>
<stop offset="0.9036" stop-color="#FEDB63"/>
</linearGradient>
</defs>
</svg>
