<svg width="12" height="12" viewBox="0 0 12 12" fill="none" xmlns="http://www.w3.org/2000/svg">
<path d="M8.50008 1.16657L8.50014 1.1665L10.8333 3.33296L10.8335 3.33323L10.8333 3.3335L8.50018 5.49993L8.50016 5.49994L8.50014 5.49995L8.50013 5.49994L8.50011 5.49993L8.5001 5.49992L8.5001 5.4999L8.50011 5.49988L8.50012 5.49987L8.50037 5.49963L9.90037 4.19963L10.8334 3.33323L9.90037 2.46684L8.50037 1.16684L8.50008 1.16657ZM3.50015 6.49984L3.50021 6.4999L3.49992 6.50017L2.09992 7.80017L1.16688 8.66657L2.09992 9.53296L3.49992 10.833L3.50018 10.8332L3.50019 10.8332L3.50019 10.8332L3.50019 10.8332L3.50018 10.8333L3.50017 10.8333L3.50015 10.8333L3.50013 10.8333L3.50012 10.8333L1.16704 8.66684L1.16675 8.66657L1.16704 8.6663L3.50015 6.49984ZM2.97861 7.66657L3.84015 6.86657L0.826813 8.2999C0.776328 8.34671 0.736052 8.40343 0.708508 8.46653C0.680965 8.52962 0.666748 8.59772 0.666748 8.66657C0.666748 8.73541 0.680965 8.80351 0.708508 8.86661C0.736052 8.9297 0.776328 8.98643 0.826813 9.03323L3.16015 11.1999C3.2083 11.2445 3.26477 11.2793 3.32634 11.3021C3.38792 11.3249 3.45338 11.3354 3.519 11.3329C3.58462 11.3304 3.64911 11.3151 3.70879 11.2877C3.76847 11.2603 3.82216 11.2214 3.86681 11.1732C3.91146 11.1251 3.94619 11.0686 3.96901 11.007C3.99184 10.9455 4.00231 10.88 3.99984 10.8144C3.99736 10.7488 3.98198 10.6843 3.95458 10.6246C3.92718 10.5649 3.8883 10.5112 3.84015 10.4666L2.97861 9.66657H2.44015V9.16657L2.78037 8.80017L3.17495 9.16657H8.16681C8.29942 9.16657 8.4266 9.11389 8.52037 9.02012C8.61413 8.92635 8.66681 8.79918 8.66681 8.66657C8.66681 8.53396 8.61413 8.40678 8.52037 8.31301C8.4266 8.21925 8.29942 8.16657 8.16681 8.16657H3.17495L2.78037 8.53296L2.44015 8.16657V7.66657H2.97861Z" fill="white" stroke="white"/>
</svg>
