<svg width="25" height="16" viewBox="0 0 25 16" fill="none" xmlns="http://www.w3.org/2000/svg">
<path d="M21.9838 2.05541L21.4793 0.966626L21.9838 2.05541C22.0567 2.02165 22.1356 2.00286 22.2158 2.00015C22.2961 1.99744 22.3761 2.01086 22.451 2.03963C22.526 2.06839 22.5944 2.11191 22.6523 2.16761C22.7101 2.22331 22.7562 2.29005 22.7878 2.36388C22.8193 2.43771 22.8358 2.51713 22.8361 2.59743C22.8364 2.67773 22.8206 2.75727 22.7896 2.83135L23.8967 3.29445L22.7896 2.83136C22.7586 2.90543 22.7131 2.97253 22.6557 3.02869L22.6387 3.04527L22.6225 3.06251L12.4278 13.8569C12.3724 13.9134 12.3064 13.9585 12.2336 13.9895C12.1593 14.021 12.0795 14.0373 11.9989 14.0373C11.9182 14.0373 11.8384 14.021 11.7642 13.9895C11.6913 13.9585 11.6253 13.9135 11.57 13.8569L1.37529 3.06251L1.37532 3.06248L1.36762 3.05448C1.25736 2.93987 1.19711 2.78617 1.20011 2.62716C1.2031 2.46834 1.26896 2.31719 1.38322 2.20686C1.49779 2.09682 1.65133 2.0367 1.81017 2.0397C1.96751 2.04267 2.11731 2.10733 2.22737 2.21963L11.1254 11.6645L11.9989 12.5916L12.8723 11.6645L21.7763 2.21333L21.7841 2.20508L21.7917 2.19669C21.8456 2.13721 21.911 2.08917 21.9838 2.05541Z" fill="white" stroke="url(#paint0_linear_3649_2394)" stroke-width="2.4"/>
<defs>
<linearGradient id="paint0_linear_3649_2394" x1="-3.86667" y1="8.01856" x2="7.4006" y2="21.7093" gradientUnits="userSpaceOnUse">
<stop stop-color="#ED693C"/>
<stop offset="0.9036" stop-color="#FEDB63"/>
</linearGradient>
</defs>
</svg>
